<?xml version="1.0" encoding="utf-8"?>
<!-- Generator: Adobe Illustrator 19.2.1, SVG Export Plug-In . SVG Version: 6.00 Build 0)  -->
<svg version="1.1" id="layer" xmlns="http://www.w3.org/2000/svg" xmlns:xlink="http://www.w3.org/1999/xlink" x="0px" y="0px"
	 viewBox="0 245 652 145" style="enable-background:new 0 245 652 145;" xml:space="preserve">
<style type="text/css">
	.st0{fill:#E2001A;}
</style>
<path class="st0" d="M389.9,283.8v-15.3c0-3.9-2.7-6.6-6.6-6.6h-3.1c-1.7,0-2.9,0.4-4.1,1.4c-1.2-1.2-2.1-1.4-3.9-1.4h-2.5
	c-1.7,0-3.1,1.4-3.3,1.7v-1.4h-4.8v21.7h4.8v-15.7c0-1,1.2-1.7,2.3-1.7h2.5c1.2,0,2.3,1,2.3,2.1v15.3h4.8v-15.3c0-1.2,1-2.1,2.3-2.1
	h2.1c1.2,0,2.5,1,2.5,2.3v15.1H389.9z M356.2,283.8v-21.7h-5v15.5c-0.4,1-1.2,1.7-2.5,1.7h-2.7c-1.2,0-2.5-1-2.5-2.3v-14.9h-4.8
	v14.9c0,3.9,2.9,6.8,6.8,6.8h2.3c1.7,0,3.1-1.4,3.3-1.7v1.4h5L356.2,283.8L356.2,283.8z M333.2,283.8v-15.3c0-3.9-2.9-6.6-6.8-6.6
	h-2.3c-1.7,0-3.1,1.4-3.3,1.7v-9.7h-5v30h5v-15.7c0-1.2,1.2-1.7,2.5-1.7h2.7c1.2,0,2.5,1,2.5,2.3v15.1H333.2z M311.1,276.9l-5-0.2
	c0,2.1-0.8,2.5-2.3,2.5H301c-1.2,0-2.3-1.2-2.3-2.5v-8.3c0-1.2,1-2.3,2.3-2.3h2.9c1.2,0,2.3,1,2.3,2.3h5c0-3.9-3.1-6.6-7.2-6.6h-3.1
	c-3.9,0-7,3.1-7,6.8v8.1c0,3.9,3.3,7,7.2,7h3.1C308.4,284,311.1,280.9,311.1,276.9z M354.1,311.3h-3.3l-5.4,17l-5.4-17h-3.5
	l7.2,21.1l-2.5,7.9h3.3L354.1,311.3L354.1,311.3z M317.1,306.3v-3.7h-3.7v3.7H317.1z M334.7,314.6v-3.3h-6.2V303h-3.1v8.3h-3.9v3.3
	h3.9v11.6c0,3.7,1.7,6.6,6.6,6.6h2.3v-2.9H332c-2.7,0-3.5-1.4-3.5-3.7v-11.6H334.7z M289.2,276.9v-8.3c0-3.9-3.3-6.8-7.2-6.8H279
	c-3.9,0-7,3.1-7,6.8v8.1c0,3.9,3.1,7,7,7h2.9C286.1,284,289.2,280.9,289.2,276.9z M316.9,332.8v-21.5h-3.1v21.3h3.1V332.8z
	 M371.5,376.7v-2.1c0-3.1-2.1-5-5.2-5h-6.2c-1.2,0-2.3-1-2.3-2.3v-1.4c0-1.2,1-2.5,2.3-2.5h5c1.4,0,2.3,1.2,2.3,2.5h3.1
	c0-2.9-2.3-5.4-5.2-5.4h-5c-2.9,0-5.6,2.3-5.6,5.4v1.4c0,3.1,2.1,5.2,5.2,5.2h6.2c1.2,0,2.3,0.8,2.3,2.1v2.1c0,1.2-1.2,2.3-2.3,2.3
	h-6.6c-1.2,0-1.9-0.6-2.1-2.3h-3.1c0,3.1,1.9,5.2,5,5.2h6.6C369.7,381.8,371.5,379.6,371.5,376.7z M266.6,276.3v-2.7
	c0-1.9-0.8-3.7-1.9-5c1.2-1.2,1.9-3.1,1.9-5v-2.5c0-3.9-3.5-7.4-7.4-7.4h-12.4v30h12.4C263.1,283.8,266.6,280.5,266.6,276.3z
	 M308.4,327.6v-2.1c0-3.1-2.1-5.2-5.2-5.2h-6.4c-1.2,0-2.1-1-2.1-2.3v-1.9c0-1.2,0.8-2.1,2.1-2.1h5c1.4,0,2.5,1.2,2.5,2.3h3.1
	c0-2.9-2.5-5.2-5.4-5.2h-4.8c-2.9,0-5.4,2.1-5.4,5.2v1.7c0,3.1,2.1,5.4,5.2,5.4h6.2c1.2,0,2.1,0.8,2.1,2.1v2.1
	c0,1.2-0.8,2.1-2.1,2.1h-6.4c-1.2,0-2.3-0.8-2.3-2.1h-3.3c-0.2,2.9,2.1,5,5.2,5h6.6C306.8,332.8,308.2,330.5,308.4,327.6
	L308.4,327.6z M349.4,372.5v-5.6c0-3.7-2.7-6.6-6.6-6.6h-3.3c-3.9,0-6.6,3.1-6.6,6.6v8.7c0,4.1,2.9,6.4,6.6,6.4h3.7
	c3.9,0,6-2.3,6.2-5.2h-3.3c-0.2,1.4-1.2,2.3-2.9,2.3h-3.3c-1.9,0-3.9-0.8-3.9-3.5v-3.1C335.9,372.5,349.4,372.5,349.4,372.5z
	 M287.9,314.4v-3.3h-3.7c-1.2,0-2.9,0.6-4.1,2.1v-1.9H277v21.1h3.1v-14.5c0-1.9,1.7-3.5,3.7-3.5
	C283.8,314.4,287.9,314.4,287.9,314.4z M230.8,277.8h-5c0,0.8-0.6,1.4-1.7,1.4h-3.3c-1.2,0-2.5-1-2.5-2.3v-1.7h12.4v-6.6
	c0-3.9-3.1-6.8-7-6.8h-2.9c-3.9,0-7.2,3.1-7.2,6.8v8.1c0,3.9,3.3,7,7.2,7h3.3C227.7,284,230.8,281.3,230.8,277.8z M327.7,375.6h-3.1
	c-0.2,2.5-1.2,3.3-3.7,3.3h-3.3c-2.1,0-3.5-1.7-3.5-3.5v-8.5c0-2.5,1.2-3.9,3.5-3.9h3.3c1.7,0,3.5,1.2,3.7,2.9v0.4h3.1v-0.6
	c0-3.3-3.3-5.6-6.6-5.6h-3.3c-3.9,0-6.6,3.1-6.6,6.6v8.5c0,3.5,2.7,6.6,6.6,6.6h3.7C325.8,381.8,327.4,379.2,327.7,375.6z
	 M210.1,284v-4.6h-1.4c-1.2,0-2.3-1-2.3-2.3v-23.4h-5v23.2c0,3.9,3.3,6.8,7.2,6.8h1.4V284z M230.4,306.3v-3.7h-3.5v3.7
	C226.9,306.3,230.4,306.3,230.4,306.3z M251.5,311.3h-3.3l-5.2,17.4l-5.2-17.4h-3.5l6.8,21.1h3.5
	C244.7,332.4,251.5,311.3,251.5,311.3z M196.1,283.8v-21.7h-4.8v15.5c0,1-1.2,1.7-2.5,1.7h-2.9c-1.2,0-2.3-1-2.3-2.3v-14.9h-5v14.9
	c0,3.9,3.1,6.8,7,6.8h2.1c1.7,0,3.3-1.4,3.5-1.7v1.4h4.8V283.8z M230.2,332.6v-21.3h-3.1v21.1h3.1V332.6z M261.2,355.4v-3.7h-3.7
	v3.7H261.2z M173.3,283.8v-15.3c0-3.9-2.5-6.6-6.8-6.6h-2.1c-1.9,0-3.5,1.7-3.5,1.7v-9.7h-5v30h4.8v-16.6c0,0,0.8-1,2.7-1h2.7
	c1.4,0,2.3,1,2.3,2.3v15.1h5C173.3,283.6,173.3,283.8,173.3,283.8z M260.8,381.6v-21.1h-3.1v21.1H260.8z M198.3,326.2v-23.4h-3.1
	v23.4c0,1.9-1.7,3.7-3.7,3.7h-6c-1.9,0-3.7-1.7-3.7-3.7v-23.4h-3.3v23.4c0,3.7,2.7,6.6,6.6,6.6h6.6
	C195.4,332.8,198.3,330.3,198.3,326.2z M151,276.9l-4.8-0.2c0,2.1-0.8,2.5-2.3,2.5H141c-1.2,0-2.5-1.2-2.5-2.5v-8.3
	c0-1.2,1.2-2.3,2.5-2.3h2.9c1.2,0,2.3,1,2.3,2.3h4.8c0-3.9-2.9-6.6-7-6.6h-3.1c-3.9,0-7,3.1-7,6.8v8.1c0,3.9,3.1,7,7,7h3.1
	C147.9,284,151,280.9,151,276.9z M231,375.2v-1.9c0-2.5-1.2-4.8-3.5-5.8l-10.8-4.8c-1.2-0.6-1.7-1.7-1.7-3.1v-1.4
	c0-1.9,1.7-3.5,3.7-3.5h4.1c1.7,0,3.7,1.2,3.9,3.1h3.1c-0.4-3.5-3.5-6.2-7-6.2h-4.1c-3.7,0-6.8,2.9-6.8,6.6v1.4
	c0,3.7,1.7,5.2,4.8,6.6l8.7,3.9c1.9,1,2.5,2.1,2.5,3.3v1.9c0,2.3-1.4,3.7-3.7,3.7h-5.4c-1.9,0-3.5-1.2-3.7-3.3h-3.3
	c0.4,3.5,3.1,6.4,6.6,6.4h5.8C228.3,381.8,231,378.7,231,375.2z M129.2,278v-1.7c0-3.5-2.3-5.8-5.6-5.8h-6c-0.6,0-1.2-0.2-1.2-1
	v-2.3c0.2-0.8,0.8-1,1.4-1h4.3c0.8,0,1.2,0.2,1.2,1.7h5c0-3.5-2.9-6-6.2-6h-4.6c-3.3,0-6,2.5-6,5.8v1.7c0,3.3,2.7,5.6,6,5.6h5.2
	c0.6,0,1.2,0.4,1.2,1.2v2.3c0,0.6-0.6,1-1.2,1h-5.6c-0.8,0-1.2-0.4-1.2-1.4h-5c0,3.5,2.7,6.2,6,6.2h6
	C126.6,284,129.2,281.3,129.2,278z M106.9,283.8v-15.3c0-3.9-2.7-6.6-6.6-6.6h-2.5c-1.7,0-3.1,1.4-3.3,1.7v-9.7h-5v30h5v-15.7
	c-0.2-1.2,1-1.9,2.1-1.9h2.9c1.4,0,2.5,1,2.5,2.3v15.1h5V283.8z M162.3,332.6v-14.7c0-3.7-2.9-6.6-6.6-6.6h-2.5
	c-2.3,0-3.5,0.8-5.2,2.5c-1.4-1.7-3.7-2.5-4.8-2.5h-2.7c-2.1,0-3.1,0.6-4.1,1.7v-1.4h-3.1v21.1h3.1v-15.1c0-2.1,1.7-3.3,3.7-3.3h3.3
	c1.7,0,3.3,1.7,3.3,3.7v14.7h3.1v-14.9c0-1.9,1.4-3.5,3.7-3.5h2.7c1.9,0,3.3,1.7,3.3,3.7v14.7C159.7,332.6,162.3,332.6,162.3,332.6z
	 M196.1,381.6v-30H193v10.1c-1-1-1.9-1.4-3.7-1.4h-3.1c-3.9,0-6.6,2.9-6.6,6.6v8.5c0,3.7,2.9,6.6,6.6,6.6h2.7c1.4,0,3.1-0.4,4.1-1.9
	v1.7h3.1V381.6z M84.8,276.9l-5-0.2c0,2.1-0.8,2.5-2.3,2.5h-2.9c-1.2,0-2.3-1.2-2.3-2.5v-8.3c0-1.2,1-2.3,2.3-2.3h2.9
	c1.4,0,2.3,1,2.3,2.3h5c0-3.9-3.1-6.6-7.2-6.6h-3.3c-3.9,0-6.8,3.1-6.8,6.8v8.1c0,3.9,3.1,7,7,7h3.1C81.4,284,84.8,280.9,84.8,276.9
	z M127.8,332.6v-21.3h-3.3v15.3c0,2.1-1.2,3.1-3.5,3.1h-3.7c-2.3,0-3.5-1.4-3.5-3.5v-14.9h-3.1v14.9c0,3.9,2.5,6.6,6.6,6.6h2.9
	c2.1,0,3.3-0.4,4.3-1.4v1.2H127.8z M152,355.4v-3.7h-3.7v3.7H152z M174.1,372.9v-6c0-3.7-2.9-6.6-6.6-6.6H164
	c-3.9,0-6.6,2.9-6.6,6.6v8.7c0,3.5,2.9,6.4,6.6,6.4h3.9c3.3,0,6-1.9,6-5.2h-3.3c-0.4,1.4-1.2,2.3-2.9,2.3h-3.3c-2.3,0-3.9-1-3.9-3.3
	v-2.9C160.5,372.9,174.1,372.9,174.1,372.9z M62.4,276.9v-8.3c0-3.9-3.1-6.8-7-6.8h-2.9c-3.9,0-7.2,3.1-7.2,6.8v8.1
	c0,3.9,3.3,7,7.2,7h2.9C59.3,284,62.4,280.9,62.4,276.9z M151.8,381.6v-21.1h-3.1v21.1C148.7,381.6,151.8,381.6,151.8,381.6z
	 M105,332.6v-14.7c0-3.7-2.9-6.6-6.6-6.6h-3.1c-2.1,0-3.1,0.6-4.1,1.7v-10.1h-3.3v29.8h3.3v-15.1c0-2.1,1.4-3.3,3.5-3.3h3.7
	c1.9,0,3.7,1.4,3.7,3.5v14.9H105z M144.8,381.8v-3.1h-1.2c-1,0-1.9-0.2-2.5-0.8c-0.8-0.6-1.2-1.4-1.2-2.7v-23.6h-3.3v23.6
	c0,4.6,2.7,6.6,6.8,6.6C143.3,381.8,144.8,381.8,144.8,381.8z M40.1,283.8v-30h-5.4V266h-9.5v-12.2H20v30h5.2v-12.6h9.5v12.6H40.1z
	 M131.1,375.4v-8.5c0-3.7-2.7-6.6-6.6-6.6h-2.7c-1.4,0-2.5,0.4-3.9,1.9v-1.7h-3.3v29.6h3.3v-9.7c1,1,1.9,1.7,3.7,1.7h3.1
	C128.2,381.8,131.1,379.8,131.1,375.4z M109,375.4v-8.5c0-3.7-2.7-6.6-6.6-6.6h-2.5c-1.4,0-2.7,0.4-4.1,1.9v-1.7h-3.3v29.6h3.1v-9.7
	c1,1,2.1,1.7,3.9,1.7h2.9C106.1,381.8,109,379.2,109,375.4z M39.4,326v-3.1c0-1.9-1-3.9-2.5-5.2c1.4-1.2,2.5-3.3,2.5-5.2v-3.1
	c0-3.7-2.5-6.6-6.6-6.6H20v29.8h12.6C37,332.6,39.4,329.7,39.4,326z M88.7,381.6l-8.7-30h-5l-9.3,30h3.5l1.7-5.8h12.8l1.7,5.8
	C85.4,381.6,88.7,381.6,88.7,381.6z M53.7,363.6v-3.1h-6.2v-2.1c0-1.9,1.7-3.7,3.7-3.7h2.3v-3.1h-2.3c-3.7,0-6.6,2.9-6.6,6.6v2.3
	h-3.9v3.1h3.9v18h3.1v-18C47.7,363.6,53.7,363.6,53.7,363.6z M36.8,375.2v-8.5c0-3.9-3.3-6.4-6.6-6.4h-3.5c-3.5,0-6.6,2.3-6.6,5.6
	v9.3c0,3.9,2.9,6.6,6.6,6.6h3.3C33.7,381.8,36.8,378.7,36.8,375.2z M284.4,276.9c0,1.2-1.2,2.3-2.5,2.3h-2.7c-1.2,0-2.5-1-2.5-2.3
	v-8.5c0-1.2,1.2-2.3,2.5-2.3h2.7c1.2,0,2.5,1,2.5,2.3C284.4,268.5,284.4,276.9,284.4,276.9z M261.4,263.7c0,1.2-1,2.3-2.3,2.3h-7.4
	v-7.4h7.2c1.2,0,2.3,1.2,2.3,2.5v2.7C261.2,263.7,261.4,263.7,261.4,263.7z M261.4,276.3c0,1.2-1,2.5-2.3,2.5h-7.4v-7.9h7.2
	c1.2,0,2.3,1.2,2.3,2.7v2.7H261.4z M346.3,369.8h-10.6v-2.9c0-1.9,1.4-3.7,3.7-3.7h3.3c2.1,0,3.7,1.7,3.7,3.7v2.9H346.3z
	 M226.1,270.9h-7.7v-2.5c0-1.2,1.2-2.3,2.5-2.3h2.7c1.2,0,2.5,1,2.5,2.3V270.9z M193,376.3c0,1.9-1.9,2.7-3.5,2.7h-3.3
	c-1.9,0-3.7-1.2-3.7-3.3v-9.3c0-2.1,1.7-3.3,3.7-3.3h3.5c1.9,0,3.5,1.2,3.5,3.3v9.9H193z M171.2,369.8h-10.6v-3.1
	c0-1.9,1.4-3.5,3.7-3.5h3.3c2.1,0,3.7,1.4,3.7,3.5v3.1C171.4,369.8,171.2,369.8,171.2,369.8z M57.7,276.9c0,1.2-1,2.3-2.3,2.3h-2.9
	c-1.4,0-2.5-1-2.5-2.3v-8.5c0-1.2,1-2.3,2.5-2.3h2.9c1.2,0,2.3,1,2.3,2.3V276.9z M128.2,375.6c0,2.1-1.4,3.3-3.7,3.3h-3.3
	c-2.1,0-3.5-1.2-3.5-3.3v-9.7c0-1.7,1.9-2.7,3.5-2.7h3.3c1.9,0,3.7,1.2,3.7,3.3V375.6z M105.9,375.6c0,2.1-1.4,3.3-3.7,3.3h-3.3
	c-2.1,0-3.5-1.2-3.5-3.3v-9.7c0-1,1.2-2.7,3.5-2.7h3.3c1.9,0,3.7,1.2,3.7,3.3V375.6z M36.3,312.5c0,1.9-1.4,3.7-3.5,3.7h-9.7v-10.6
	h9.7c1.9,0,3.5,1.7,3.5,3.7C36.3,309.4,36.3,312.5,36.3,312.5z M82.9,372.9H71.7l5.4-18h0.6L82.9,372.9z M36.3,326
	c0,2.1-1.4,3.5-3.5,3.5h-9.7v-10.3h9.7c1.9,0,3.5,1.7,3.5,3.7C36.3,322.9,36.3,326,36.3,326z M33.7,375.6c0,2.1-1.4,3.5-3.7,3.5
	h-3.3c-1.9,0-3.7-1.2-3.7-3.5v-9.1c0-2.3,1.9-3.3,3.7-3.3h3.3c2.1,0,3.7,1.2,3.7,3.3V375.6z M283.4,372.5v-5.6
	c0-3.7-2.7-6.6-6.6-6.6h-3.3c-3.9,0-6.6,3.1-6.6,6.6v8.7c0,4.1,2.9,6.4,6.6,6.4h3.7c3.9,0,6-2.3,6.2-5.2h-3.3
	c-0.2,1.4-1.2,2.3-2.9,2.3h-3.3c-1.9,0-3.9-0.8-3.9-3.5v-3.1C269.9,372.5,283.4,372.5,283.4,372.5z M280.3,369.8h-10.6v-2.9
	c0-1.9,1.4-3.7,3.7-3.7h3.3c2.1,0,3.7,1.7,3.7,3.7v2.9C280.5,369.8,280.3,369.8,280.3,369.8z M251.7,375.6h-3.1
	c-0.2,2.5-1.2,3.3-3.7,3.3h-3.3c-2.1,0-3.5-1.7-3.5-3.5v-8.5c0-2.5,1.2-3.9,3.5-3.9h3.3c1.7,0,3.5,1.2,3.7,2.9v0.4h3.1v-0.4
	c0-3.3-3.3-5.8-6.6-5.8h-3.3c-3.9,0-6.6,3.1-6.6,6.6v8.5c0,3.5,2.7,6.6,6.6,6.6h3.7C249.9,381.8,251.7,379.2,251.7,375.6z M61.2,326
	v-8.5c0-3.9-3.3-6.4-6.6-6.4H51c-3.5,0-6.6,2.3-6.6,5.6v9.5c0,3.9,2.9,6.6,6.6,6.6h3.3C58.1,332.8,61.2,329.7,61.2,326z M58.1,326.4
	c0,2.1-1.4,3.5-3.7,3.5H51c-1.9,0-3.7-1.2-3.7-3.5v-9.1c0-2.3,1.9-3.3,3.7-3.3h3.3c2.1,0,3.7,1.2,3.7,3.3
	C58.1,317.3,58.1,326.4,58.1,326.4z M82.9,326.6h-3.1c-0.2,2.5-1.2,3.3-3.7,3.3h-3.3c-2.1,0-3.5-1.7-3.5-3.5v-8.5
	c0-2.5,1.2-3.9,3.5-3.9h3.3c1.7,0,3.5,1.2,3.7,2.9v0.4h3.1v-0.4c0-3.3-3.3-5.8-6.6-5.8H73c-3.9,0-6.6,3.1-6.6,6.6v8.5
	c0,3.5,2.7,6.6,6.6,6.6h3.7C80.8,332.8,82.7,330.1,82.9,326.6z M271.6,323.3v-5.6c0-3.7-2.7-6.6-6.6-6.6h-3.3
	c-3.9,0-6.6,3.1-6.6,6.6v8.7c0,4.1,2.9,6.4,6.6,6.4h3.7c3.9,0,6-2.3,6.2-5.2h-3.3c-0.2,1.4-1.2,2.3-2.9,2.3h-3.3
	c-1.9,0-3.9-0.8-3.9-3.5v-3.1C258.1,323.3,271.6,323.3,271.6,323.3z M268.5,320.6h-10.6v-2.9c0-1.9,1.4-3.7,3.7-3.7h3.3
	c2.1,0,3.7,1.7,3.7,3.7v2.9C268.7,320.6,268.5,320.6,268.5,320.6z M220.9,332.6v-14.9c0-4.3-3.3-6.4-6.6-6.4h-2.9
	c-2.1,0-3.3,0.8-4.3,1.9v-1.7h-3.1v21.1h3.1v-14.9c0-2.3,1.9-3.5,3.7-3.5h3.7c2.1,0,3.5,1.2,3.5,3.7v14.7
	C218,332.6,220.9,332.6,220.9,332.6z M305.7,381.6v-14.9c0-4.3-3.3-6.4-6.6-6.4h-2.9c-2.1,0-3.3,0.8-4.3,1.9v-1.7H289v21.1h3.1
	v-14.9c0-2.3,1.9-3.5,3.7-3.5h3.7c2.1,0,3.5,1.2,3.5,3.7v14.7H305.7z M620,292.3v-15.9c0-12.4-10.1-22.6-22.6-22.6h-15.9v16.1H596
	c4.3,0,7.9,3.5,7.9,7.9v14.5H620L620,292.3z M620,336.9v-38.5h-16.1v38.5H620z M575.1,269.9v-16.1h-15.7
	c-12.2,0-22.6,10.1-22.6,22.6v15.9h15.7v-14.5c0-4.3,3.9-7.9,8.3-7.9C560.8,269.9,575.1,269.9,575.1,269.9z M620,359.3v-15.9h-16.1
	v14.5c0,3.5-1.9,6.4-5,7.4c-1,0.4-1.9,0.4-2.9,0.4h-14.5v16.1h15.9c5,0,9.7-1.4,13.4-4.3c3.9-2.9,6.8-7.2,8.3-12
	C619.8,363.2,620,361.4,620,359.3L620,359.3z M524,292.3v-15.9c0-12.2-10.1-22.6-22.6-22.6h-15.9v16.1H500c4.3,0,8.1,3.5,8.1,7.9
	v14.5L524,292.3L524,292.3z M552.8,298.5h-15.9v38.5h15.7C552.6,327.4,552.8,334.7,552.8,298.5z M575.1,381.6v-16.1h-14.3
	c-1,0-1.9,0-2.9-0.4c-3.1-1.2-5.4-3.9-5.4-7.4v-14.5h-15.7v16.1c0,2.1,0.2,3.9,0.8,6c1.2,4.8,4.1,9.3,8.3,12
	c3.7,2.9,8.5,4.3,13.4,4.3H575.1z M479.3,269.9v-16.1h-38.5v38.5H457v-22.3H479.3z M524,336.9v-4.8c0-1.2,0-2.1-0.2-3.1
	c-0.8-5.2-3.5-9.7-7.2-13c4.6-3.9,7.4-9.3,7.4-15.7v-1.7h-15.9v1.7c0,4.3-3.7,7.9-8.1,7.9h-14.5v16.1H500c3.3,0,6.2,1.9,7.2,4.8
	c0.4,1,0.8,1.9,0.8,3.1v4.8H524z M479.3,324.3v-16.1H457v-9.5h-16.1v38.5H457v-12.6h22.3C479.3,324.5,479.3,324.3,479.3,324.3z
	 M524,359.3v-15.9h-15.9v15.9c0,2.7-1.7,5-3.9,6c-0.8,0.4-1.4,0.4-2.5,0.4h-16.1v16.1h15.9c5,0,9.7-1.4,13.4-4.3
	c3.9-2.9,6.8-7.2,8.3-12C523.8,363.2,524,361.4,524,359.3L524,359.3z M479.3,381.6v-16.1H457v-22.1h-16.1v38.5h38.5
	C479.3,381.8,479.3,381.6,479.3,381.6z"/>
</svg>
