<?xml version="1.0" encoding="utf-8"?>
<!-- Generator: Adobe Illustrator 27.0.0, SVG Export Plug-In . SVG Version: 6.00 Build 0)  -->
<svg version="1.1" id="Layer_1" xmlns="http://www.w3.org/2000/svg" xmlns:xlink="http://www.w3.org/1999/xlink" x="0px" y="0px"
	 viewBox="0 0 507.1 55.7" style="enable-background:new 0 0 507.1 55.7;" xml:space="preserve">
<style type="text/css">
	.st0{fill:#3464AB;}
	.st1{fill:#75B743;}
	.st2{fill:#060507;}
	.st3{fill:#090809;}
</style>
<g>
	<g>
		<path class="st0" d="M27.3,12.2c-2.9-1.9-6.2-2.8-9.6-2.8c-3.4,0-6.7,1-9.6,2.8c-0.6,0.4-1,1-1,1.7c-0.1,0.7,0.2,1.4,0.7,1.9l1,1
			c0.5,0.5,1.1,0.7,1.7,0.7c0.4,0,0.8-0.1,1.2-0.3c1.8-1.1,4-1.7,6.1-1.7c2.2,0,4.3,0.6,6.1,1.7c0.9,0.6,2.1,0.4,2.9-0.3l1-1
			c0.5-0.5,0.8-1.2,0.7-1.9C28.2,13.2,27.8,12.6,27.3,12.2"/>
		<path class="st1" d="M14.9,38.6c-5.4-1.3-9.1-6-9.1-11.5c0-2.2,0.6-4.3,1.8-6.2c0.5-0.9,0.4-2-0.3-2.8l-1-1
			c-0.5-0.5-1.2-0.7-1.8-0.7c-0.7,0.1-1.3,0.4-1.6,1C1,20.4,0,23.8,0,27.1c0,8.3,5.9,15.5,13.9,17.3c0.2,0,0.3,0,0.5,0
			c0.5,0,1-0.2,1.4-0.5c0.5-0.4,0.8-1.1,0.8-1.8v-1.3C16.6,39.8,15.9,38.9,14.9,38.6"/>
		<path class="st0" d="M47.1,9.5c-9.7,0-17.7,7.9-17.7,17.7c0,0,0,0.1,0,0.1c0,0,0,0.1,0,0.1c-0.1,5.5-4.1,10.3-9.5,11.4
			c-0.7,0.1-1.3,0.8-1.3,1.6V43c0,0.5,0.2,0.9,0.6,1.2c0.4,0.3,0.8,0.4,1.3,0.4c8.6-1.4,14.8-8.7,14.8-17.4
			c0-6.5,5.3-11.8,11.8-11.8s11.8,5.3,11.8,11.8c0,6.5-5.3,11.8-11.8,11.8c-1.6,0-2.9,1.3-2.9,2.9c0,1.6,1.3,2.9,2.9,2.9
			c9.7,0,17.7-7.9,17.7-17.7C64.8,17.4,56.9,9.5,47.1,9.5"/>
		<path class="st2" d="M104.2,27.3c0.5-0.5,0.8-1,0.8-1.7c0-2.5-0.5-4.7-1.4-6.7c-0.9-2-2-3.7-3.5-5.1c-1.4-1.4-3.1-2.5-5-3.3
			c-1.9-0.7-3.8-1.1-5.8-1.1c-2.7,0-5.3,0.7-7.7,2.1c-2.4,1.4-4.4,3.5-5.9,6.1c-1.5,2.7-2.3,5.9-2.3,9.7c0,3.4,0.7,6.4,2.2,9
			c1.4,2.6,3.5,4.6,6.1,6.1s5.7,2.2,9.2,2.2c2.4,0,4.6-0.5,6.6-1.5c2.1-1,3.7-2.2,5-3.5c0.7-0.6,1-1.3,1-2c0-0.6-0.2-1.1-0.7-1.6
			c-0.4-0.4-1-0.7-1.6-0.7c-0.6,0-1.1,0.2-1.7,0.6c-0.6,0.6-1.3,1.2-2.1,1.8c-0.8,0.6-1.8,1.1-2.9,1.5c-1.1,0.4-2.5,0.6-4,0.6
			c-2.4,0-4.6-0.6-6.4-1.7c-1.8-1.1-3.3-2.6-4.3-4.5c-0.9-1.7-1.4-3.6-1.5-5.7h23.8C103.1,28,103.7,27.7,104.2,27.3 M82,17.3
			c1-1,2.2-1.7,3.5-2.2c1.3-0.5,2.6-0.7,3.9-0.7c1.6,0,3.1,0.4,4.6,1c1.5,0.7,2.7,1.7,3.7,3c1,1.3,1.6,2.8,1.7,4.6v0.5H78.9
			c0.2-0.8,0.4-1.6,0.6-2.3C80.2,19.6,81,18.3,82,17.3"/>
		<path class="st2" d="M144.9,27.1c0,3.4-0.7,6.4-2.3,9.1c-1.5,2.7-3.5,4.8-6.1,6.3c-2.6,1.5-5.4,2.3-8.6,2.3s-6.1-0.8-8.6-2.3
			c-2.6-1.5-4.6-3.6-6.1-6.3c-1.5-2.7-2.3-5.7-2.3-9.1s0.8-6.4,2.3-9.1c1.5-2.7,3.5-4.8,6.1-6.3c2.6-1.5,5.4-2.3,8.6-2.3
			s6,0.8,8.6,2.3s4.6,3.6,6.1,6.3C144.2,20.6,144.9,23.7,144.9,27.1 M139.7,27.1c0-2.5-0.5-4.7-1.5-6.6c-1-1.9-2.4-3.4-4.2-4.5
			c-1.8-1.1-3.7-1.7-5.9-1.7c-2.2,0-4.2,0.6-6,1.7c-1.8,1.1-3.2,2.6-4.2,4.5c-1,1.9-1.6,4.1-1.6,6.6c0,2.5,0.5,4.7,1.6,6.6
			c1,1.9,2.5,3.4,4.2,4.5c1.8,1.1,3.8,1.7,6,1.7c2.2,0,4.2-0.6,5.9-1.7c1.8-1.1,3.2-2.6,4.2-4.5C139.1,31.7,139.7,29.5,139.7,27.1"
			/>
		<path class="st2" d="M150.8,38.7c-0.3-0.6-0.5-1.2-0.5-1.8c0-0.6,0.4-1.2,1.1-1.7c0.5-0.3,1-0.4,1.6-0.4c0.6,0,1.1,0.3,1.6,0.9
			c1.2,1.4,2.6,2.6,4.2,3.4c1.6,0.9,3.5,1.3,5.8,1.3c1,0,2-0.2,3.1-0.5c1.1-0.3,2-0.8,2.7-1.6c0.7-0.8,1.1-1.8,1.1-3
			c0-1.2-0.4-2.2-1.1-2.9c-0.7-0.7-1.7-1.3-2.9-1.8c-1.2-0.5-2.5-0.9-3.8-1.2c-1.4-0.4-2.9-0.8-4.2-1.3c-1.4-0.5-2.6-1.1-3.8-1.9
			c-1.1-0.8-2-1.7-2.7-2.9c-0.7-1.2-1-2.6-1-4.3c0-2,0.5-3.7,1.6-5.1c1.1-1.4,2.5-2.6,4.3-3.3c1.8-0.8,3.8-1.2,6-1.2
			c1.2,0,2.5,0.1,3.8,0.4c1.3,0.3,2.6,0.8,3.9,1.4c1.3,0.7,2.4,1.6,3.3,2.8c0.4,0.4,0.6,1,0.7,1.6c0,0.7-0.2,1.2-0.9,1.8
			c-0.5,0.3-1,0.5-1.6,0.5c-0.6,0-1.1-0.2-1.5-0.6c-1-1.1-2.1-2-3.5-2.6c-1.4-0.6-2.9-0.9-4.5-0.9c-1,0-2,0.2-3,0.5
			c-1,0.3-1.8,0.8-2.5,1.5c-0.7,0.7-1,1.7-1,2.9c0,1.2,0.4,2.1,1.2,2.9c0.7,0.7,1.7,1.3,3,1.8c1.3,0.5,2.7,0.9,4.2,1.3
			c1.4,0.3,2.7,0.8,4,1.2c1.3,0.5,2.5,1.1,3.5,1.8c1,0.7,1.9,1.7,2.5,2.8c0.6,1.2,0.9,2.6,0.9,4.3c0,2-0.6,3.7-1.7,5.2
			c-1.1,1.5-2.6,2.6-4.5,3.3c-1.9,0.8-3.8,1.1-6,1.1c-2.4,0-4.8-0.4-7.1-1.3C154.6,42.5,152.5,40.9,150.8,38.7"/>
		<path class="st2" d="M198.8,9.4c2.3,0,4.3,0.2,6.1,0.7c1.8,0.5,3.2,1.1,4.2,2c1,0.8,1.6,1.8,1.6,2.8c0,0.6-0.2,1.2-0.6,1.7
			c-0.4,0.5-0.9,0.8-1.6,0.8c-0.6,0-1-0.1-1.4-0.4c-0.4-0.2-0.7-0.5-1-0.8c-0.3-0.3-0.8-0.6-1.3-0.9c-0.5-0.3-1.3-0.5-2.3-0.7
			c-1-0.2-2-0.3-3-0.3c-2.4,0-4.5,0.6-6.3,1.7c-1.8,1.1-3.2,2.7-4.3,4.6c-1,1.9-1.6,4.1-1.6,6.5c0,2.4,0.5,4.6,1.5,6.5
			c1,1.9,2.4,3.4,4.2,4.6c1.8,1.1,3.9,1.7,6.2,1.7c1.5,0,2.7-0.1,3.6-0.4c0.9-0.3,1.7-0.6,2.3-0.9c0.7-0.4,1.3-0.9,1.7-1.3
			c0.4-0.4,1-0.7,1.7-0.7c0.7,0,1.3,0.2,1.7,0.7c0.4,0.5,0.6,1.1,0.6,1.8c0,0.8-0.5,1.7-1.6,2.6c-1.1,0.9-2.6,1.6-4.4,2.2
			c-1.9,0.6-4,0.9-6.3,0.9c-3.3,0-6.2-0.8-8.7-2.3c-2.5-1.5-4.4-3.7-5.8-6.3c-1.4-2.7-2.1-5.7-2.1-9c0-3.3,0.7-6.3,2.1-9
			c1.4-2.7,3.4-4.8,5.9-6.3C192.5,10.2,195.5,9.4,198.8,9.4"/>
	</g>
	<rect x="232.7" class="st3" width="0.6" height="55.7"/>
	<g>
		<path class="st3" d="M276.9,35.5h-14.8l-3.3,9.2H254l13.5-35.3h4.1L285,44.7h-4.8L276.9,35.5z M263.5,31.7h12l-6-16.5L263.5,31.7z
			"/>
		<path class="st3" d="M288,31.4c0-4.1,0.9-7.4,2.8-9.8c1.9-2.4,4.4-3.6,7.6-3.6c3.1,0,5.6,1,7.4,3.1l0.2-2.6h4.1v36.3h-4.5V42.3
			c-1.8,1.9-4.2,2.9-7.2,2.9c-3.2,0-5.7-1.2-7.6-3.7c-1.9-2.5-2.8-5.7-2.8-9.8V31.4z M292.5,31.9c0,3,0.6,5.4,1.9,7.1
			c1.3,1.7,3,2.6,5.1,2.6c2.7,0,4.7-1.2,6.1-3.5V25.1c-1.4-2.3-3.4-3.5-6.1-3.5c-2.2,0-3.9,0.9-5.2,2.6
			C293.1,26,292.5,28.5,292.5,31.9z"/>
		<path class="st3" d="M333.5,42.1c-1.7,2.1-4.3,3.1-7.7,3.1c-2.8,0-4.9-0.8-6.4-2.4c-1.5-1.6-2.2-4-2.2-7.2V18.5h4.5v17
			c0,4,1.6,6,4.9,6c3.4,0,5.7-1.3,6.8-3.8V18.5h4.5v26.2h-4.3L333.5,42.1z"/>
		<path class="st3" d="M360.9,44.7c-0.3-0.5-0.5-1.4-0.6-2.8c-2.1,2.2-4.6,3.3-7.5,3.3c-2.6,0-4.7-0.7-6.4-2.2
			c-1.7-1.5-2.5-3.3-2.5-5.6c0-2.7,1-4.9,3.1-6.4c2.1-1.5,5-2.3,8.8-2.3h4.4v-2.1c0-1.6-0.5-2.8-1.4-3.7c-0.9-0.9-2.3-1.4-4.1-1.4
			c-1.6,0-2.9,0.4-4,1.2c-1.1,0.8-1.6,1.8-1.6,2.9h-4.5c0-1.3,0.5-2.6,1.4-3.8c0.9-1.2,2.2-2.2,3.8-2.9c1.6-0.7,3.3-1.1,5.3-1.1
			c3,0,5.4,0.8,7.1,2.3c1.7,1.5,2.6,3.6,2.7,6.2v12.1c0,2.4,0.3,4.3,0.9,5.7v0.4H360.9z M353.5,41.3c1.4,0,2.7-0.4,4-1.1
			c1.3-0.7,2.2-1.7,2.7-2.8V32h-3.5c-5.5,0-8.2,1.6-8.2,4.8c0,1.4,0.5,2.5,1.4,3.3C350.8,40.9,352,41.3,353.5,41.3z"/>
		<path class="st3" d="M377.4,44.7h-4.7V9.4h4.7V44.7z"/>
		<path class="st3" d="M413.1,44.7h-4.7l-17.8-27.2v27.2h-4.7V9.4h4.7l17.8,27.3V9.4h4.6V44.7z"/>
		<path class="st3" d="M440.8,29.1H426v15.6h-4.7V9.4h21.9v3.8H426v12.1h14.8V29.1z"/>
		<path class="st3" d="M461.8,30.4h-8.3v14.3h-4.7V9.4h11.7c4,0,7,0.9,9.2,2.7c2.1,1.8,3.2,4.4,3.2,7.9c0,2.2-0.6,4.1-1.8,5.7
			c-1.2,1.6-2.8,2.9-5,3.7l8.3,15v0.3h-5L461.8,30.4z M453.5,26.6h7.2c2.3,0,4.2-0.6,5.5-1.8c1.4-1.2,2-2.8,2-4.8c0-2.2-0.7-3.9-2-5
			c-1.3-1.2-3.2-1.8-5.6-1.8h-7.1V26.6z"/>
		<path class="st3" d="M498.9,35.5h-14.8l-3.3,9.2H476l13.5-35.3h4.1l13.5,35.3h-4.8L498.9,35.5z M485.5,31.7h12l-6-16.5L485.5,31.7
			z"/>
	</g>
</g>
</svg>
